<svg xmlns="http://www.w3.org/2000/svg" xmlns:xlink="http://www.w3.org/1999/xlink" width="1366" height="768" viewBox="0 0 1366 768">
  <defs>
    <linearGradient id="linear-gradient" x1="0.5" x2="0.5" y2="1" gradientUnits="objectBoundingBox">
      <stop offset="0" stop-color="#56c2b6"/>
      <stop offset="1" stop-color="#00ffe6"/>
    </linearGradient>
    <filter id="Ellipse_34" x="208.5" y="74.5" width="156" height="156" filterUnits="userSpaceOnUse">
      <feOffset dy="3" input="SourceAlpha"/>
      <feGaussianBlur stdDeviation="7.5" result="blur"/>
      <feFlood flood-color="#392f2f" flood-opacity="0.31"/>
      <feComposite operator="in" in2="blur"/>
      <feComposite in="SourceGraphic"/>
    </filter>
    <filter id="Ellipse_33" x="232" y="98" width="110" height="109" filterUnits="userSpaceOnUse">
      <feOffset dy="3" input="SourceAlpha"/>
      <feGaussianBlur stdDeviation="3" result="blur-2"/>
      <feFlood flood-opacity="0.161"/>
      <feComposite operator="in" in2="blur-2"/>
      <feComposite in="SourceGraphic"/>
    </filter>
    <filter id="Ellipse_34-2" x="1271.5" y="165.5" width="156" height="156" filterUnits="userSpaceOnUse">
      <feOffset dy="3" input="SourceAlpha"/>
      <feGaussianBlur stdDeviation="7.5" result="blur-3"/>
      <feFlood flood-color="#392f2f" flood-opacity="0.31"/>
      <feComposite operator="in" in2="blur-3"/>
      <feComposite in="SourceGraphic"/>
    </filter>
    <filter id="Ellipse_33-2" x="1295" y="189" width="110" height="109" filterUnits="userSpaceOnUse">
      <feOffset dy="3" input="SourceAlpha"/>
      <feGaussianBlur stdDeviation="3" result="blur-4"/>
      <feFlood flood-opacity="0.161"/>
      <feComposite operator="in" in2="blur-4"/>
      <feComposite in="SourceGraphic"/>
    </filter>
    <filter id="Ellipse_34-3" x="832.5" y="636.5" width="156" height="156" filterUnits="userSpaceOnUse">
      <feOffset dy="3" input="SourceAlpha"/>
      <feGaussianBlur stdDeviation="7.5" result="blur-5"/>
      <feFlood flood-color="#392f2f" flood-opacity="0.31"/>
      <feComposite operator="in" in2="blur-5"/>
      <feComposite in="SourceGraphic"/>
    </filter>
    <filter id="Ellipse_33-3" x="856" y="660" width="110" height="109" filterUnits="userSpaceOnUse">
      <feOffset dy="3" input="SourceAlpha"/>
      <feGaussianBlur stdDeviation="3" result="blur-6"/>
      <feFlood flood-opacity="0.161"/>
      <feComposite operator="in" in2="blur-6"/>
      <feComposite in="SourceGraphic"/>
    </filter>
    <filter id="glass1" x="91" y="-7" width="1292" height="786" filterUnits="userSpaceOnUse">
      <feOffset dx="8" dy="3" input="SourceAlpha"/>
      <feGaussianBlur stdDeviation="3" result="blur-7"/>
      <feFlood flood-opacity="0.541"/>
      <feComposite operator="in" in2="blur-7"/>
      <feComposite in="SourceGraphic"/>
    </filter>
    <clipPath id="clip-path">
      <path id="Rectangle_6" data-name="Rectangle 6" d="M44,0H72a0,0,0,0,1,0,0V44a0,0,0,0,1,0,0H0a0,0,0,0,1,0,0v0A44,44,0,0,1,44,0Z" transform="translate(123.629 -0.172)" fill="#fff" stroke="#fff" stroke-width="1"/>
    </clipPath>
    <filter id="Rectangle_8" x="1116" y="30" width="120" height="52" filterUnits="userSpaceOnUse">
      <feOffset dy="3" input="SourceAlpha"/>
      <feGaussianBlur stdDeviation="3" result="blur-8"/>
      <feFlood flood-opacity="0.161"/>
      <feComposite operator="in" in2="blur-8"/>
      <feComposite in="SourceGraphic"/>
    </filter>
    <filter id="explore_box-shadwow" x="257.5" y="436.5" width="317" height="140" filterUnits="userSpaceOnUse">
      <feOffset dx="15" dy="15" input="SourceAlpha"/>
      <feGaussianBlur stdDeviation="12.5" result="blur-9"/>
      <feFlood flood-color="#393c57"/>
      <feComposite operator="in" in2="blur-9"/>
      <feComposite in="SourceGraphic"/>
    </filter>
    <filter id="explore_box-light" x="227.5" y="406.5" width="317" height="140" filterUnits="userSpaceOnUse">
      <feOffset dx="-15" dy="-15" input="SourceAlpha"/>
      <feGaussianBlur stdDeviation="12.5" result="blur-10"/>
      <feFlood flood-color="#6a6d84" flood-opacity="0.969"/>
      <feComposite operator="in" in2="blur-10"/>
      <feComposite in="SourceGraphic"/>
    </filter>
    <clipPath id="clip-dark_-mode-home">
      <rect width="1366" height="768"/>
    </clipPath>
  </defs>
  <g id="dark_-mode-home" data-name="dark -mode-home" clip-path="url(#clip-dark_-mode-home)">
    <rect width="1366" height="768" fill="#fff"/>
    <g id="base" fill="#3e425f" stroke="#707070" stroke-width="1">
      <rect width="1366" height="768" stroke="none"/>
      <rect x="0.5" y="0.5" width="1365" height="767" fill="none"/>
    </g>
    <g id="nav_base" data-name="nav base" transform="translate(0 -8)">
      <rect id="Rectangle_9" data-name="Rectangle 9" width="92" height="57" transform="translate(0 151)" fill="#fff"/>
    </g>
    <g id="nav_light_select_" data-name="nav light(select)">
      <rect id="Rectangle_10" data-name="Rectangle 10" width="13" height="66" transform="translate(0 138)" fill="url(#linear-gradient)"/>
      <rect id="Rectangle_11" data-name="Rectangle 11" width="11" height="57" transform="translate(0 142)" fill="url(#linear-gradient)"/>
    </g>
    <g id="design_" data-name="design " opacity="0.65">
      <g id="Component_7_11" data-name="Component 7 – 11" transform="translate(231 94)">
        <g transform="matrix(1, 0, 0, 1, -231, -94)" filter="url(#Ellipse_34)">
          <g id="Ellipse_34-4" data-name="Ellipse 34" transform="translate(231 94)" fill="none" stroke="#9890cb" stroke-width="19">
            <circle cx="55.5" cy="55.5" r="55.5" stroke="none"/>
            <circle cx="55.5" cy="55.5" r="46" fill="none"/>
          </g>
        </g>
        <g transform="matrix(1, 0, 0, 1, -231, -94)" filter="url(#Ellipse_33)">
          <g id="Ellipse_33-4" data-name="Ellipse 33" transform="translate(241 104)" fill="none" stroke="#95b9e2" stroke-width="15">
            <ellipse cx="46" cy="45.5" rx="46" ry="45.5" stroke="none"/>
            <ellipse cx="46" cy="45.5" rx="38.5" ry="38" fill="none"/>
          </g>
        </g>
      </g>
      <g id="Component_7_12" data-name="Component 7 – 12" transform="translate(1294 185)">
        <g transform="matrix(1, 0, 0, 1, -1294, -185)" filter="url(#Ellipse_34-2)">
          <g id="Ellipse_34-5" data-name="Ellipse 34" transform="translate(1294 185)" fill="none" stroke="#9890cb" stroke-width="19">
            <circle cx="55.5" cy="55.5" r="55.5" stroke="none"/>
            <circle cx="55.5" cy="55.5" r="46" fill="none"/>
          </g>
        </g>
        <g transform="matrix(1, 0, 0, 1, -1294, -185)" filter="url(#Ellipse_33-2)">
          <g id="Ellipse_33-5" data-name="Ellipse 33" transform="translate(1304 195)" fill="none" stroke="#95b9e2" stroke-width="15">
            <ellipse cx="46" cy="45.5" rx="46" ry="45.5" stroke="none"/>
            <ellipse cx="46" cy="45.5" rx="38.5" ry="38" fill="none"/>
          </g>
        </g>
      </g>
      <g id="Component_7_13" data-name="Component 7 – 13" transform="translate(855 656)">
        <g transform="matrix(1, 0, 0, 1, -855, -656)" filter="url(#Ellipse_34-3)">
          <g id="Ellipse_34-6" data-name="Ellipse 34" transform="translate(855 656)" fill="none" stroke="#9890cb" stroke-width="19">
            <circle cx="55.5" cy="55.5" r="55.5" stroke="none"/>
            <circle cx="55.5" cy="55.5" r="46" fill="none"/>
          </g>
        </g>
        <g transform="matrix(1, 0, 0, 1, -855, -656)" filter="url(#Ellipse_33-3)">
          <g id="Ellipse_33-6" data-name="Ellipse 33" transform="translate(865 666)" fill="none" stroke="#95b9e2" stroke-width="15">
            <ellipse cx="46" cy="45.5" rx="46" ry="45.5" stroke="none"/>
            <ellipse cx="46" cy="45.5" rx="38.5" ry="38" fill="none"/>
          </g>
        </g>
      </g>
    </g>
    <g transform="matrix(1, 0, 0, 1, 0, 0)" filter="url(#glass1)">
      <path id="glass1-2" data-name="glass1" d="M92,0H1274V768H0V92A92,92,0,0,1,92,0Z" transform="translate(92 -1)" fill="#fff" opacity="0.8"/>
    </g>
    <g id="nav-icons" transform="translate(0 -10)">
      <path id="Icon_metro-home" data-name="Icon metro-home" d="M33.419,19.715,17.995,7.743,2.571,19.716V14.834L17.995,2.861,33.419,14.834Zm-3.856-.435V30.849H21.851V23.136H14.139v7.712H6.427V19.28L17.995,10.6Z" transform="translate(31.005 166.886)" fill="#fff7f7"/>
      <path id="Icon_awesome-laptop" data-name="Icon awesome-laptop" d="M36.976,24.651H22.609a1.868,1.868,0,0,1-1.94,1.9h-3.6a2.012,2.012,0,0,1-1.942-1.9H.948A.951.951,0,0,0,0,25.6v.948a3.8,3.8,0,0,0,3.792,3.792H34.132a3.8,3.8,0,0,0,3.792-3.792V25.6A.951.951,0,0,0,36.976,24.651ZM34.132,2.844A2.853,2.853,0,0,0,31.287,0H6.637A2.853,2.853,0,0,0,3.792,2.844v19.91H34.132ZM30.339,18.962H7.585V3.792H30.339Z" transform="translate(30.038 249.571)" fill="#fff"/>
      <path id="Icon_material-library-books" data-name="Icon material-library-books" d="M6,9H3V30a3.009,3.009,0,0,0,3,3H27V30H6ZM30,3H12A3.009,3.009,0,0,0,9,6V24a3.009,3.009,0,0,0,3,3H30a3.009,3.009,0,0,0,3-3V6A3.009,3.009,0,0,0,30,3ZM28.5,16.5h-15v-3h15Zm-6,6h-9v-3h9Zm6-12h-15v-3h15Z" transform="translate(35 328.241)" fill="#fff"/>
      <g id="Mask_Group_1" data-name="Mask Group 1" transform="translate(-110.629 405.413)" clip-path="url(#clip-path)">
        <g id="results_1_" data-name="results (1)" transform="translate(143.808 -0.599)">
          <g id="surface1">
            <path id="Path_154" data-name="Path 154" d="M112.218,136.047h17.705a.607.607,0,0,0,0-1.214H112.218a.607.607,0,1,0,0,1.214Zm0,0" transform="translate(-105.243 -127.034)" fill="#fff" stroke="#fff" stroke-width="1"/>
            <path id="Path_155" data-name="Path 155" d="M1.538,6.061V42.525a1.909,1.909,0,0,0,1.9,1.9H31.288a1.906,1.906,0,0,0,1.9-1.9V6.061a1.9,1.9,0,0,0-1.9-1.9H22.04a4.708,4.708,0,0,0-9.351,0H3.441A1.9,1.9,0,0,0,1.538,6.061ZM31.973,42.525a.687.687,0,0,1-.688.688H3.441a.687.687,0,0,1-.688-.688V11.938H31.978ZM17.365,1.2a3.5,3.5,0,0,1,3.449,2.955H13.932A3.5,3.5,0,0,1,17.365,1.2ZM31.288,5.371a.691.691,0,0,1,.69.69v4.662H2.753V6.061a.689.689,0,0,1,.688-.69Zm0,0" transform="translate(-1.538 -0.002)" fill="#fff" stroke="#fff" stroke-width="1"/>
            <path id="Path_156" data-name="Path 156" d="M203.68,302.231h14.354a.607.607,0,0,0,0-1.214H203.68a.607.607,0,0,0,0,1.214Zm0,0" transform="translate(-191.415 -283.605)" fill="#fff" stroke="#fff" stroke-width="1"/>
            <path id="Path_157" data-name="Path 157" d="M203.68,411.734h14.354a.608.608,0,0,0,0-1.215H203.68a.608.608,0,0,0,0,1.215Zm0,0" transform="translate(-191.415 -386.772)" fill="#fff" stroke="#fff" stroke-width="1"/>
            <path id="Path_158" data-name="Path 158" d="M203.68,521.169h14.354a.608.608,0,0,0,0-1.215H203.68a.608.608,0,0,0,0,1.215Zm0,0" transform="translate(-191.415 -489.876)" fill="#fff" stroke="#fff" stroke-width="1"/>
            <path id="Path_159" data-name="Path 159" d="M203.68,630.622h14.354a.606.606,0,0,0,0-1.213H203.68a.606.606,0,0,0,0,1.213Zm0,0" transform="translate(-191.415 -593)" fill="#fff" stroke="#fff" stroke-width="1"/>
            <path id="Path_160" data-name="Path 160" d="M91.53,262.167a.608.608,0,0,0,.4.252h.09a.608.608,0,0,0,.372-.13l3.867-3.022a.607.607,0,1,0-.606-1.051.586.586,0,0,0-.137.107l-3.364,2.632-.587-.838a.607.607,0,0,0-1,.7Zm0,0" transform="translate(-85.32 -243.202)" fill="#fff" stroke="#fff" stroke-width="1"/>
            <path id="Path_161" data-name="Path 161" d="M90.805,370.66a.609.609,0,0,0,.4.253h.09a.617.617,0,0,0,.372-.131l3.867-3.024a.606.606,0,1,0-.719-.976l-.028.022-3.36,2.635-.587-.838a.607.607,0,1,0-1.085.543.582.582,0,0,0,.09.132Zm0,0" transform="translate(-84.596 -345.453)" fill="#fff" stroke="#fff" stroke-width="1"/>
            <path id="Path_162" data-name="Path 162" d="M91.471,478.843a.611.611,0,0,0,.4.25h.09a.608.608,0,0,0,.372-.13l3.867-3.023a.607.607,0,1,0-.719-.977l-.028.022-3.364,2.627-.586-.837a.608.608,0,1,0-1,.7Zm0,0" transform="translate(-85.261 -447.376)" fill="#fff" stroke="#fff" stroke-width="1"/>
            <path id="Path_163" data-name="Path 163" d="M91.53,587.876a.612.612,0,0,0,.4.251h.09A.64.64,0,0,0,92.4,588l3.867-3.025a.607.607,0,1,0-.647-1.027.544.544,0,0,0-.1.076l-3.364,2.631-.587-.837a.607.607,0,1,0-1,.7Zm0,0" transform="translate(-85.32 -550.079)" fill="#fff" stroke="#fff" stroke-width="1"/>
          </g>
        </g>
      </g>
      <path id="Icon_awesome-blog" data-name="Icon awesome-blog" d="M12.108,15.947a1.69,1.69,0,0,0-1.983,1.673v3.544A1.69,1.69,0,0,0,11.3,22.711,3.375,3.375,0,1,1,6.75,25.875V8.438A1.683,1.683,0,0,0,5.063,6.75H1.688A1.683,1.683,0,0,0,0,8.438V25.875a10.127,10.127,0,1,0,12.108-9.928ZM14.7,0a1.132,1.132,0,0,0-1.2,1.125V3.347a1.114,1.114,0,0,0,1.055,1.118,18.058,18.058,0,0,1,16.938,16.98A1.123,1.123,0,0,0,32.611,22.5h2.257a1.132,1.132,0,0,0,1.125-1.2A22.554,22.554,0,0,0,14.7,0Zm.021,6.75A1.134,1.134,0,0,0,13.5,7.882v2.257a1.121,1.121,0,0,0,1.041,1.118A11.231,11.231,0,0,1,24.729,21.466,1.13,1.13,0,0,0,25.847,22.5h2.264a1.139,1.139,0,0,0,1.132-1.216A15.82,15.82,0,0,0,14.716,6.75Z" transform="translate(35.003 487.749)" fill="#fff"/>
      <path id="Icon_awesome-user-tie" data-name="Icon awesome-user-tie" d="M15.75,18a9,9,0,1,0-9-9A9,9,0,0,0,15.75,18Zm6.736,2.292L19.125,33.75l-2.25-9.562,2.25-3.937h-6.75l2.25,3.938-2.25,9.563L9.014,20.292A9.434,9.434,0,0,0,0,29.7v2.925A3.376,3.376,0,0,0,3.375,36h24.75A3.376,3.376,0,0,0,31.5,32.625V29.7a9.434,9.434,0,0,0-9.014-9.408Z" transform="translate(35.003 562.253)" fill="#fff"/>
    </g>
    <g id="expand_nav" data-name="expand nav" transform="translate(11 104)">
      <path id="Path_164" data-name="Path 164" d="M12.564,10.378a1.362,1.362,0,0,1,1.92,0l6.708,6.729a1.356,1.356,0,0,1,.042,1.87l-6.609,6.63A1.355,1.355,0,1,1,12.7,23.7L18.315,18l-5.759-5.7A1.356,1.356,0,0,1,12.564,10.378Z" transform="translate(-1.124 -3.375)" fill="#bbdbff"/>
      <path id="Path_165" data-name="Path 165" d="M18,3.375A14.625,14.625,0,1,1,3.375,18,14.623,14.623,0,0,1,18,3.375ZM9.253,26.747A12.37,12.37,0,1,0,26.747,9.253,12.37,12.37,0,1,0,9.253,26.747Z" transform="translate(-3.375 -3.375)" fill="#bbdbff"/>
    </g>
    <text id="LOGO" transform="translate(144 53)" fill="#fff" font-size="30" font-family="Roboto-Black, Roboto" font-weight="800"><tspan x="0" y="0">LOGO</tspan></text>
    <g id="illustration" transform="translate(620 226.75)">
      <path id="Path_1" data-name="Path 1" d="M548.524,594.19l-.917-.954c.182-.174,18.233-17.851,25.113-50.883,6.354-30.5,4.208-80.723-42.095-146.748-19.346-27.586-32.54-53.65-39.213-77.467-5.453-19.461-6.607-37.552-3.431-53.771,6.279-32.066,27.62-46.144,27.835-46.282l.717,1.112c-.21.136-21.106,13.949-27.262,45.465-7.062,36.159,7.216,79.959,42.438,130.183,20.567,29.328,34.259,58.046,40.693,85.357,5.155,21.879,5.692,42.908,1.6,62.5C567.016,576.109,548.708,594.013,548.524,594.19Z" transform="translate(-206.835 -148.846)" fill="#f2f2f2"/>
      <circle id="Ellipse_2" data-name="Ellipse 2" cx="51.226" cy="51.226" r="51.226" transform="translate(246.034 40.643)" fill="#f2f2f2"/>
      <path id="Path_2" data-name="Path 2" d="M495.8,253.04a69.8,69.8,0,1,1,69.8-69.8A69.8,69.8,0,0,1,495.8,253.04Zm0-138.269a68.473,68.473,0,1,0,68.473,68.473A68.473,68.473,0,0,0,495.8,114.771Z" transform="translate(-186.46 -113.449)" fill="#f2f2f2"/>
      <circle id="Ellipse_3" data-name="Ellipse 3" cx="42.48" cy="42.48" r="42.48" transform="translate(306.007 165.584)" fill="#f2f2f2"/>
      <circle id="Ellipse_4" data-name="Ellipse 4" cx="42.48" cy="42.48" r="42.48" transform="translate(284.35 313.015)" fill="#f2f2f2"/>
      <rect id="Rectangle_12" data-name="Rectangle 12" width="155.503" height="101.242" transform="translate(349.663 75.435)" fill="#6c63ff"/>
      <path id="Path_3" data-name="Path 3" d="M1067.26,749.672H923.244s-2.919-42.816,14.353-43.3,15.326,18.975,36.977-7.785,47.924-25.3,51.33-9.488-6.568,28.463,11.677,24.57S1082.1,719.993,1067.26,749.672Z" transform="translate(-354.608 -304.339)" fill="#f2f2f2"/>
      <path id="Path_4" data-name="Path 4" d="M1028.241,749.552l-.486-.019c1.133-28.189,7.037-46.3,11.79-56.531,5.161-11.108,10.134-15.6,10.183-15.649l.323.364c-.049.044-4.964,4.5-10.083,15.528C1035.242,703.432,1029.366,721.469,1028.241,749.552Z" transform="translate(-390.026 -304.21)" fill="#fff"/>
      <path id="Path_5" data-name="Path 5" d="M1107.021,770.32l-.467-.136a75.471,75.471,0,0,1,19-31.613l.327.36A74.959,74.959,0,0,0,1107.021,770.32Z" transform="translate(-416.682 -324.919)" fill="#fff"/>
      <path id="Path_6" data-name="Path 6" d="M951.09,764.84l-.482-.067a52.988,52.988,0,0,0-4.766-30.973,42.645,42.645,0,0,0-7.522-10.977l.337-.351a43.185,43.185,0,0,1,7.622,11.112A53.476,53.476,0,0,1,951.09,764.84Z" transform="translate(-359.771 -319.474)" fill="#fff"/>
      <path id="Path_7" data-name="Path 7" d="M146.207,747.286l-.332-.682c-.1-.208-10.05-21.005-4.5-41.51S166,671.643,166.188,671.515l.63-.422.332.682c.1.208,10.05,21.005,4.5,41.51s-24.624,33.451-24.816,33.579Zm20.078-74.22c-3.34,2.43-18.791,14.467-23.635,32.372s2.431,36.093,4.091,39.873c3.34-2.43,18.791-14.467,23.635-32.372h0c4.847-17.92-2.431-36.094-4.091-39.873Z" transform="translate(-89.605 -302.092)" fill="#3f3d56"/>
      <path id="Path_8" data-name="Path 8" d="M109.917,713.609c5.547,20.5,24.545,33.2,24.545,33.2s10.006-20.544,4.459-41.048-24.545-33.2-24.545-33.2S104.37,693.106,109.917,713.609Z" transform="translate(-78.966 -302.589)" fill="#6c63ff"/>
      <path id="Path_9" data-name="Path 9" d="M121.076,757.658l-.757-.041c-.231-.012-23.241-1.431-38.463-16.248S64.6,703.587,64.579,703.357l-.062-.755.757.041c.231.012,23.241,1.431,38.463,16.248S121,756.672,121.014,756.9ZM65.983,704.027c.5,4.1,3.5,23.455,16.8,36.393s32.72,15.423,36.831,15.812c-.5-4.1-3.5-23.454-16.8-36.393h0C89.513,706.89,70.093,704.414,65.983,704.027Z" transform="translate(-64.175 -312.751)" fill="#3f3d56"/>
      <path id="Path_10" data-name="Path 10" d="M165.98,719.724C150.76,734.54,148.9,757.315,148.9,757.315s22.817-1.246,38.037-16.062,17.079-37.592,17.079-37.592S181.2,704.908,165.98,719.724Z" transform="translate(-92.721 -313.11)" fill="#3f3d56"/>
      <path id="Path_11" data-name="Path 11" d="M352.98,525.724C337.76,540.54,335.9,563.315,335.9,563.315s22.817-1.246,38.037-16.062,17.079-37.592,17.079-37.592S368.2,510.908,352.98,525.724Z" transform="translate(-155.98 -247.483)" fill="#3f3d56"/>
      <circle id="Ellipse_5" data-name="Ellipse 5" cx="9.926" cy="9.926" r="9.926" transform="translate(45.937 346.737)" fill="#6c63ff"/>
      <path id="Path_12" data-name="Path 12" d="M304.97,632.608l-.917-.954c.144-.138,14.462-14.164,19.915-40.37,5.036-24.2,3.326-64.055-33.424-116.457-28.185-40.19-39.591-75.3-33.9-104.363,5-25.53,22-36.745,22.173-36.856l.717,1.112c-.166.108-16.723,11.058-21.6,36.039-5.6,28.686,5.737,63.444,33.693,103.308,16.349,23.313,27.233,46.143,32.349,67.857,4.1,17.4,4.526,34.127,1.268,49.714C319.692,618.214,305.117,632.467,304.97,632.608Z" transform="translate(-128.688 -187.926)" fill="#3f3d56"/>
      <ellipse id="Ellipse_6" data-name="Ellipse 6" cx="119.108" cy="20.434" rx="119.108" ry="20.434" transform="translate(50.569 137.795)" fill="#6c63ff"/>
      <path id="Path_13" data-name="Path 13" d="M211.652,348.063c-82.559,0-147.231-11.336-147.231-25.807s64.672-25.807,147.231-25.807,147.231,11.336,147.231,25.807S294.211,348.063,211.652,348.063Zm0-50.29c-79.09,0-145.908,11.212-145.908,24.483s66.818,24.483,145.908,24.483S357.56,335.527,357.56,322.256,290.743,297.772,211.652,297.772Z" transform="translate(-64.142 -175.356)" fill="#3f3d56"/>
      <path id="Path_14" data-name="Path 14" d="M324.413,183.676s-17.65-4.972-22.871,19.142-1.243,36.295-1.243,36.295l39.4-4.6S350.888,191.01,324.413,183.676Z" transform="translate(-143.446 -137.063)" fill="#2f2e41"/>
      <path id="Path_15" data-name="Path 15" d="M286.415,341.729s-25.89,2.579-21.279,13.031,4.611,11.375,4.611,11.375L292.5,406.714l7.378-7.686s-8.3-18.138-8.3-23.979-8.608-15.986-8.608-15.986l15.064-1.23Z" transform="translate(-131.856 -190.673)" fill="#a0616a"/>
      <path id="Path_16" data-name="Path 16" d="M395.05,359.863l8.608,18.753s6.456,6.456,13.527,32.279,8.607,24.9,8.607,24.9l-10.76,2.152s-11.99-27.976-15.986-30.128-8.915-21.827-8.915-21.827l-14.141-17.831,4.3-9.53Z" transform="translate(-169.542 -196.392)" fill="#a0616a"/>
      <path id="Path_17" data-name="Path 17" d="M356.308,324.513l13.219,24.594s-16.6-7.686-19.06,9.223L335.4,346.648s-20.9,6.763-33.509,4.3c0,0,3.689-11.682-9.53-16.908l29.82-3.689-1.23-6.456,3.074-6.148Z" transform="translate(-141.252 -182.561)" fill="#2f2e41"/>
      <path id="Path_18" data-name="Path 18" d="M306.228,427.086s-8.3-1.23-6.148,6.148l4.3,14.756s-5.534,15.064,3.074,11.682S321.6,435.387,321.6,435.387s3.689-15.986,0-15.986-15.371-2.459-14.142,0S306.228,427.086,306.228,427.086Z" transform="translate(-143.742 -216.579)" fill="#2f2e41"/>
      <path id="Path_19" data-name="Path 19" d="M442.123,468.293s-10.76-2.767-13.219,1.537-1.844,18.445-1.844,18.753,3.689,3.382,4.919,3.382,8.915,13.834,19.368,8.915S442.123,468.293,442.123,468.293Z" transform="translate(-186.795 -233.192)" fill="#2f2e41"/>
      <circle id="Ellipse_7" data-name="Ellipse 7" cx="11.99" cy="11.99" r="11.99" transform="translate(165.868 60.177)" fill="#a0616a"/>
      <path id="Path_20" data-name="Path 20" d="M341.119,226.227s2.459,12.912,4.611,14.756-16.293,4.611-16.293,4.611,2.767-8.915-.615-13.527S341.119,226.227,341.119,226.227Z" transform="translate(-153.424 -151.6)" fill="#a0616a"/>
      <path id="Path_21" data-name="Path 21" d="M366.391,304.265c-2.094,0-7.424-.867-13.4-1.983-5.171-.965-10.831-2.112-15.294-3.04-4.78-1-8.2-1.74-8.2-1.74s-1.23,7.686-5.226,6.763c-3.443-.793-13.733-36.734-16.515-46.667a3.455,3.455,0,0,1,1.528-3.883l14.132-8.629,3.621,1.383s6.118-4.728,9.668-4.823,9.7-1.018,9.7-1.018,7.071.615,8.3,5.841,1.844,37.813,6.456,43.654S372.232,304.265,366.391,304.265Z" transform="translate(-146.417 -156.472)" fill="#d0cde1"/>
      <path id="Path_22" data-name="Path 22" d="M331.389,361.4s0,11.99,7.993,10.145.615-12.912.615-12.912Z" transform="translate(-154.454 -196.392)" fill="#a0616a"/>
      <path id="Path_23" data-name="Path 23" d="M359.111,363.258s-2.767,14.142-8.608,11.99,0-14.756,0-14.756Z" transform="translate(-160.042 -197.02)" fill="#a0616a"/>
      <path id="Path_24" data-name="Path 24" d="M373.769,300.674s-3.01,7.181-5.408,13.081c-5.171-.965-10.831-2.112-15.294-3.04a8.8,8.8,0,0,1,1.334-2.355c2.152-2.459.922-3.074.922-3.074-1.845-3.689-.307-8.608-.307-8.608-3.689-9.838,1.845-22.134,1.845-22.134Z" transform="translate(-161.787 -167.945)" opacity="0.15"/>
      <path id="Path_25" data-name="Path 25" d="M356.264,270.146s-5.534,12.3-1.845,22.134c0,0-1.537,4.919.307,8.608,0,0,1.23.615-.922,3.074s-4,11.067-2.459,12.912-2.152,5.226-1.23,7.071-1.537,4.3-1.537,4.3,9.223,1.845,10.76,4.611a4.974,4.974,0,0,0,.922-4.611c-.922-2.459-.307-3.382.615-4.919s3.689-4.919,4-6.456,8.3-20.6,8.3-20.6l-3.749-34.734Z" transform="translate(-160.269 -163.547)" fill="#d0cde1"/>
      <path id="Path_26" data-name="Path 26" d="M310.131,261.535l-.574.1a3.456,3.456,0,0,0-2.839,3.425c.022,3.087.2,8.564.954,16.145,1.23,12.3,5.534,30.742,6.456,32.587a98.147,98.147,0,0,0,4.919,9.53c2.767,4.611,3.382,3.074,2.767,5.226a3.238,3.238,0,0,0,.922,3.382s5.534-6.148,11.067-2.767a6.851,6.851,0,0,0,.615-2.767c0-1.537.922-3.074-.615-4s.922-4.919-1.537-7.071-2.767-1.845-2.459-4a9.157,9.157,0,0,0-.615-4.3Z" transform="translate(-146.108 -163.545)" fill="#d0cde1"/>
      <path id="Path_27" data-name="Path 27" d="M329.771,199.235s-4.972,13.176-17.153,18.645L310.629,206.2Z" transform="translate(-147.431 -142.469)" fill="#2f2e41"/>
      <ellipse id="Ellipse_8" data-name="Ellipse 8" cx="1.691" cy="3.228" rx="1.691" ry="3.228" transform="translate(187.848 64.327)" fill="#a0616a"/>
      <circle id="Ellipse_9" data-name="Ellipse 9" cx="21.476" cy="21.476" r="21.476" transform="translate(515.712 194.511)" fill="#2f2e41"/>
      <circle id="Ellipse_10" data-name="Ellipse 10" cx="7.134" cy="7.134" r="7.134" transform="translate(527.185 180.647)" fill="#2f2e41"/>
      <path id="Path_28" data-name="Path 28" d="M857.981,399.024a7.134,7.134,0,0,1,.61-9.548q-.3.192-.584.418a7.134,7.134,0,1,0,8.874,11.171,7.029,7.029,0,0,0,.539-.474A7.134,7.134,0,0,1,857.981,399.024Z" transform="translate(-331.69 -206.825)" fill="#2f2e41"/>
      <path id="Path_29" data-name="Path 29" d="M810.137,557.219l-12.43,10.517s-18.645,5.737-9.561,11.952,14.342-7.649,14.342-7.649l15.3-9.561Z" transform="translate(-308.125 -263.571)" fill="#ffb9b9"/>
      <path id="Path_30" data-name="Path 30" d="M847.471,487.373l-1.434-.956s-5.737,0-6.693,5.737-3.825,17.688-3.825,17.688-9.561,5.737-8.605,16.254L816.875,534.7s11.952,3.824,9.561,7.171l17.689-16.254.478-31.074Z" transform="translate(-318.688 -239.619)" fill="#2f2e41"/>
      <circle id="Ellipse_11" data-name="Ellipse 11" cx="12.43" cy="12.43" r="12.43" transform="translate(522.091 211.899)" fill="#ffb9b9"/>
      <path id="Path_31" data-name="Path 31" d="M864.292,462.532s7.649,8.605,2.868,13.386-6.215,28.206-6.215,28.206l21.035-32.03s-5.737-11.474-5.259-15.3Z" transform="translate(-333.596 -229.599)" fill="#ffb9b9"/>
      <path id="Path_32" data-name="Path 32" d="M838.157,502.264s11.474-25.2,17.689-26.942l16.254,3.995s-12.908,44.46-11.474,48.763,9.561,10.517,6.693,48.285c0,0,36.811,67.407,27.728,78.881s-43.026,20.079-43.5,16.732S835.766,617,838.157,601.224c0,0,0,68.364-2.868,69.8s-48.763,11.952-47.329,3.824,24.381-97.526,24.381-97.526l17.689-55.456.478-8.127s-7.649-5.259-1.912-17.21,7.649-13.864,7.649-13.864l6.887-1.293S836.722,498.918,838.157,502.264Z" transform="translate(-308.895 -235.866)" fill="#2f2e41"/>
      <path id="Path_33" data-name="Path 33" d="M895.789,570.223l-5.737,12.43s-14.82,15.776-4.3,16.254,11.474-14.342,11.474-14.342l7.649-14.342Z" transform="translate(-340.711 -267.97)" fill="#ffb9b9"/>
      <path id="Path_34" data-name="Path 34" d="M903,481.928h6.215s1.912-2.868,3.825,9.083.956,30.118.956,30.118l-2.868,23.9s-10.039-3.825-12.43-2.868,0-.478,0-.478l4.3-16.254-5.259-23.425Z" transform="translate(-346.007 -237.998)" fill="#2f2e41"/>
      <path id="Path_35" data-name="Path 35" d="M863.463,424.31c-8.119,2.206-13.657,7.834-12.371,12.57.576,2.119,2.425,3.7,5.015,4.6l2.273-2.819.1,3.422c.36.061.725.116,1.1.156l2.888-6.081,1.646,6.059a25.566,25.566,0,0,0,4-.754c8.119-2.206,13.657-7.834,12.371-12.57S871.581,422.1,863.463,424.31Z" transform="translate(-330.2 -218.309)" fill="#2f2e41"/>
      <ellipse id="Ellipse_12" data-name="Ellipse 12" cx="1.434" cy="2.39" rx="1.434" ry="2.39" transform="translate(545.755 219.309)" fill="#ffb9b9"/>
      <ellipse id="Ellipse_13" data-name="Ellipse 13" cx="11.249" cy="4.963" rx="11.249" ry="4.963" transform="translate(487.299 435.407)" fill="#2f2e41"/>
      <ellipse id="Ellipse_14" data-name="Ellipse 14" cx="15.083" cy="6.617" rx="15.083" ry="6.617" transform="translate(540.72 436.187) rotate(-21.513)" fill="#2f2e41"/>
      <path id="Path_36" data-name="Path 36" d="M779.442,482.368c-.2-.048-19.822-5.044-27.289-24.884-8.512-22.614,1.5-54.5,29.743-94.781,34.5-49.2,36.375-65.727,31.871-70.931-5.7-6.583-23.573,2.331-23.753,2.422l-.6-1.181c.772-.39,18.979-9.467,25.349-2.107,7,8.087-3.7,32.5-31.788,72.558-15.307,21.827-25.312,41.418-29.736,58.23-3.588,13.63-3.54,25.508.142,35.305,7.21,19.187,26.182,24.038,26.372,24.084Z" transform="translate(-295.799 -172.509)" fill="#3f3d56"/>
      <path id="Path_37" data-name="Path 37" d="M726.511,300.97H560.421V192.449h166.09Zm-164.767-1.323H725.188V193.772H561.744Z" transform="translate(-231.933 -140.174)" fill="#3f3d56"/>
      <circle id="Ellipse_15" data-name="Ellipse 15" cx="6.97" cy="6.97" r="6.97" transform="translate(390.689 106.99)" fill="#3f3d56"/>
      <circle id="Ellipse_16" data-name="Ellipse 16" cx="6.97" cy="6.97" r="6.97" transform="translate(450.2 106.99)" fill="#3f3d56"/>
      <path id="Path_38" data-name="Path 38" d="M724.19,328.2c0,2.073-13.442,8.042-30.023,8.042s-30.024-5.969-30.024-8.042,13.442.536,30.024.536S724.19,326.127,724.19,328.2Z" transform="translate(-267.021 -185.826)" fill="#3f3d56"/>
      <rect id="Rectangle_13" data-name="Rectangle 13" width="727.885" height="1.323" transform="translate(0 444.374)" fill="#3f3d56"/>
    </g>
    <g id="text">
      <text id="WELCOME." transform="translate(273 202)" fill="#6c63ff" font-size="83" font-family="SegoeUI, Segoe UI"><tspan x="0" y="0">WELCOME.</tspan></text>
      <text id="Lorem_ipsum._Lorem_ipsu_m_Lorem_ipsum_Lorem_ipsum_Lorem_ipsum" data-name="Lorem ipsum. Lorem ipsu
m Lorem ipsum Lorem ipsum 
Lorem ipsum" transform="translate(276 260)" fill="#f2f2f2" font-size="35" font-family="Roboto-Regular, Roboto"><tspan x="0" y="0">Lorem ipsum. Lorem ipsu</tspan><tspan x="0" y="42">m Lorem ipsum Lorem ipsum </tspan><tspan x="0" y="84">Lorem ipsum</tspan></text>
    </g>
    <g id="top_nav" data-name="top nav">
      <text id="Login" transform="translate(1251 60)" fill="#fff" font-size="25" font-family="Roboto-Bold, Roboto" font-weight="700"><tspan x="0" y="0">Login</tspan></text>
      <g id="toggle_switch" data-name="toggle switch" transform="translate(1243 583) rotate(180)">
        <g transform="matrix(-1, 0, 0, -1, 1243, 583)" filter="url(#Rectangle_8)">
          <rect id="Rectangle_8-2" data-name="Rectangle 8" width="102" height="34" rx="17" transform="translate(1227 70) rotate(180)" fill="#1c242a"/>
        </g>
        <path id="Icon_feather-moon" data-name="Icon feather-moon" d="M24.46,15.348A9.973,9.973,0,1,1,13.612,4.5,7.756,7.756,0,0,0,24.46,15.348Z" transform="matrix(-0.966, -0.259, 0.259, -0.966, 43.045, 547.586)" fill="none" stroke="#fff" stroke-linecap="round" stroke-linejoin="round" stroke-width="3"/>
        <circle id="Ellipse_1" data-name="Ellipse 1" cx="14" cy="14" r="14" transform="translate(87 516)" fill="#a786cf"/>
      </g>
    </g>
    <g id="footer">
      <g id="footer-2" data-name="footer" transform="translate(-19 722)" fill="#a0cdf8" stroke="#707070" stroke-width="1">
        <rect width="1404" height="53" rx="26.5" stroke="none"/>
        <rect x="0.5" y="0.5" width="1403" height="52" rx="26" fill="none"/>
      </g>
      <path id="Icon_awesome-copyright" data-name="Icon awesome-copyright" d="M10.313.563a9.75,9.75,0,1,0,9.75,9.75A9.75,9.75,0,0,0,10.313.563Zm4.605,13.632a5.869,5.869,0,0,1-4.319,1.8,5.539,5.539,0,0,1-5.68-5.723A5.536,5.536,0,0,1,10.57,4.632a5.662,5.662,0,0,1,4.066,1.529.472.472,0,0,1,.049.575L13.805,8.1a.472.472,0,0,1-.717.09,4,4,0,0,0-2.433-.939A2.814,2.814,0,0,0,7.75,10.242a2.942,2.942,0,0,0,2.92,3.133,3.854,3.854,0,0,0,2.577-1.125.472.472,0,0,1,.728.041l.965,1.32a.472.472,0,0,1-.022.584Z" transform="translate(16.563 738.188)" fill="#a07dc8"/>
    </g>
    <g id="explore_box" data-name="explore box" transform="translate(280 459)">
      <g transform="matrix(1, 0, 0, 1, -280, -459)" filter="url(#explore_box-shadwow)">
        <rect id="explore_box-shadwow-2" data-name="explore box-shadwow" width="242" height="65" rx="26" transform="translate(280 459)" fill="#5c607d"/>
      </g>
      <g transform="matrix(1, 0, 0, 1, -280, -459)" filter="url(#explore_box-light)">
        <rect id="explore_box-light-2" data-name="explore box-light" width="242" height="65" rx="26" transform="translate(280 459)" fill="#5c607d"/>
      </g>
      <rect id="explore_box-2" data-name="explore box" width="242" height="65" rx="26" fill="#5c607d"/>
      <text id="Explore" transform="translate(57 46)" fill="#fff" font-size="38" font-family="Roboto-Black, Roboto" font-weight="800"><tspan x="0" y="0">Explore</tspan></text>
    </g>
  </g>
</svg>
